<svg id="Capa_1" data-name="Capa 1" xmlns="http://www.w3.org/2000/svg" viewBox="0 0 2493 1104"><defs><style>.cls-1{fill:#ff005d;}</style></defs><title>Mesa de trabajo 1</title><path d="M344.64,308a142.8,142.8,0,0,0-15.27,11.25L320,308Z"/><path class="cls-1" d="M446,1072.42a20,20,0,0,1-14.62,6.37,15.26,15.26,0,0,1-3-.26,10.62,10.62,0,0,0,1.49.07,20.79,20.79,0,0,0,12.93-4.55s.72-.59,2-1.82a19.91,19.91,0,0,0,2.67-24.83c-.07-.19-.13-.45-.2-.65A19.88,19.88,0,0,1,446,1072.42Z"/><path class="cls-1" d="M427.77,1078.47a13.39,13.39,0,0,1-3.84-.78,20.13,20.13,0,0,1-11.7-9.49c3.12,3,5.07,4.81,5.59,5.26A19.83,19.83,0,0,0,427.77,1078.47Z"/><path d="M627.93,409.73,588.62,416c-.4-2.34-.79-4.68-1.24-7H470.92l-50.56-50.5L395.08,308H320l-.19-.19-16-19.17a199.45,199.45,0,0,1,127.51-46.21C529.73,242.38,612.4,312.76,627.93,409.73Z"/><polygon points="320.01 307.95 319.23 307.95 319.82 307.76 320.01 307.95"/><path class="cls-1" d="M812.7,379.05c-22.1-119.51-81-208.75-175.08-265.35C548.32,60,457.27,55.34,431.34,55.21h-1.88c-24,.19-92.74,4-167.16,38.15q-7.69,3.4-15.4,7.41l-.39.19q-10.72,5.46-21.58,11.89C130,169.39,70.65,259,48.49,379.05,25.35,504.22,81,659.54,213.69,840.67,299.54,957.78,389.16,1046,412.23,1068.2c3.12,3,5.07,4.81,5.59,5.26a19.83,19.83,0,0,0,9.95,5,1.73,1.73,0,0,0,.52.06,10.62,10.62,0,0,0,1.49.07,20.79,20.79,0,0,0,12.93-4.55s.72-.59,2-1.82a19.91,19.91,0,0,0,2.67-24.83c-.07-.19-.13-.45-.2-.65-26.71-101-56.54-235.39-54.59-289.14,2.93-79.15,20.93-81.17,30.61-82.27l3.19-.33c86.69-9.55,138-25.8,160.13-50.88,59.27-21.58,87-88.45,88.32-147.27a14.8,14.8,0,0,0,.07-1.76c.26-15.72-1.37-44.38-14.69-62.65-15.34-20.86-43.41-19.82-52.58-19.49-12.15.39-25.6,2.34-37.3,4.16-.07,0-.13.06-.2.06a1,1,0,0,0-.45.07c-.2,0-.39.06-.52.06l-4.94.78c-57.06,8.84-95.54,11.77-110.16-27.29-30.15-80.27-71.23-82.28-107.43-84.1-8.7-.39-17.67-.84-26.51-2.4a98.82,98.82,0,0,1-12.87-3.19c-32.36-10.72-14.3-83.44-3.44-126.86,1.3-5.2,2.47-10.14,3.57-14.75,1-4.22,3.12-13.13,2.28-22.42,56.93-19.89,105.73-21.9,120.16-22h1.56c29.83.13,290.24,10,342.17,291.21,20.08,108.8-30.74,252.42-147.07,415.42-1.3,1.88-2.66,3.77-4,5.59a20,20,0,0,0,4.29,27.88,20,20,0,0,0,27.82-4.29c1.55-2.08,3.05-4.16,4.41-6.18C783.32,650.32,835.05,500.39,812.7,379.05Zm-518-60.18a124.94,124.94,0,0,0,18.4,4.61c11.3,2,22,2.54,31.51,3,32.95,1.63,51.15,2.54,72.08,58.36,25.28,67.4,93.13,61.68,143,54.21,6.88,15.59,18.91,34.31,38.73,46.14A77.07,77.07,0,0,0,633.26,496c-5.26,34.9-22.61,79.48-64.53,92-22.49,6.82-50,3.57-82-9.62a19.93,19.93,0,0,0-15.21,36.85,213.59,213.59,0,0,0,23.85,8.38c-18.52,4.29-42.5,8.38-73.44,11.76l-3.25.33c-54.33,6.11-63.82,61.48-66,120.42-1.95,52.65,21.32,160.59,39.19,234.68C283.23,876.15,48.36,599.3,87.68,386.26c24.69-133.74,96.12-206.08,167.73-245.2a20.88,20.88,0,0,0,4.16-1.69l2.8-1.56c1.3-.78,3.12-1.75,5.13-2.86-.78,3.12-1.56,6.37-2.4,9.68C250.93,201.5,227.27,296.64,294.73,318.87Z"/><path class="cls-1" d="M262.3,93.36q-7.69,3.4-15.4,7.41A120.77,120.77,0,0,1,262.3,93.36Z"/><path class="cls-1" d="M148.59,389.72h-.08a19.87,19.87,0,0,1-19.83-19.87c0-2.61.52-64.53,45.66-109.67a19.91,19.91,0,1,1,28.16,28.16c-33.22,33.23-34,81.11-34,81.59A20,20,0,0,1,148.59,389.72Z"/><path class="cls-1" d="M316.29,448.5a66.75,66.75,0,0,1-10.16-.78c-34.91-5.41-53.41-36.68-55.41-40.23a19.91,19.91,0,0,1,34.65-19.64c.32.55,10.91,18.16,27,20.54,11,1.62,23.67-4.19,37.67-17.25a19.91,19.91,0,0,1,27.17,29.11C357.13,439,336.67,448.5,316.29,448.5Z"/><path d="M584.72,890.32a.72.72,0,0,1-.72-.71Z"/><path d="M584,889.61a.72.72,0,0,0,.72.71Z"/><path d="M584.72,853.08a36.53,36.53,0,1,0,36.52,36.53A36.56,36.56,0,0,0,584.72,853.08Zm0,37.24a.72.72,0,0,1-.72-.71Z"/><path d="M553.52,969.28A36.53,36.53,0,1,1,517,932.7,36.56,36.56,0,0,1,553.52,969.28Z"/><path d="M1291.59,517l-71.43,9.22-8.64-32.55h-32.84l-7.2,32.55L1098,519l57.32-191.83,80.07-4Zm-85.26-67.4-10.94-50.12-10.66,50.12Z"/><path d="M1457.79,415a118.88,118.88,0,0,1-5.19,36.36,98.83,98.83,0,0,1-14.47,28.8A96.4,96.4,0,0,1,1416,501.83a126.13,126.13,0,0,1-28.08,14.9,166,166,0,0,1-32.48,8.65,219.43,219.43,0,0,1-35.35,2.8q-6.78,0-13.25-.36t-13.25-1.08l4-193.27a181.73,181.73,0,0,1,32.62-7.13,270.06,270.06,0,0,1,33.34-2.08,111.53,111.53,0,0,1,37.88,6.19,85.52,85.52,0,0,1,29.81,17.86,80.49,80.49,0,0,1,19.51,28.51Q1457.79,393.68,1457.79,415Zm-59,9.21a57.35,57.35,0,0,0-1.66-15,35.72,35.72,0,0,0-5.9-12.75,31.09,31.09,0,0,0-10.44-8.93,34.2,34.2,0,0,0-15.12-3.67l-5.76,89.29a40.67,40.67,0,0,0,15.69-5.69,47.66,47.66,0,0,0,12.17-10.8,49.14,49.14,0,0,0,7.92-14.26,52.93,52.93,0,0,0,3.1-16.2Z"/><path d="M1644.43,427.66a104.29,104.29,0,0,1-3,25.28,99.12,99.12,0,0,1-8.71,22.82,95,95,0,0,1-13.83,19.52,87.84,87.84,0,0,1-18.29,15.19,88.64,88.64,0,0,1-47.45,13.39,90.44,90.44,0,0,1-24.7-3.31,93.42,93.42,0,0,1-22-9.29,88,88,0,0,1-18.51-14.4,89.48,89.48,0,0,1-14.11-18.72,96.35,96.35,0,0,1-9.08-22.11,92.64,92.64,0,0,1-3.24-24.63,100.78,100.78,0,0,1,11.74-47.23A97.8,97.8,0,0,1,1487,364.58a90.67,90.67,0,0,1,18.08-15.41,86.77,86.77,0,0,1,21.67-10.08,83.09,83.09,0,0,1,24.63-3.6,107.32,107.32,0,0,1,38.09,6.48,80.74,80.74,0,0,1,48.25,47.6Q1644.43,406.63,1644.43,427.66Zm-63.94,3.74a40.56,40.56,0,0,0-1.8-12,32.83,32.83,0,0,0-5.26-10.37,27,27,0,0,0-8.56-7.34,23.93,23.93,0,0,0-11.74-2.81,28.52,28.52,0,0,0-12.1,2.45,27.76,27.76,0,0,0-9.15,6.69,29.55,29.55,0,0,0-5.83,9.94,35.81,35.81,0,0,0-2,12,43.89,43.89,0,0,0,1.72,12.1A36.12,36.12,0,0,0,1531,453a27.59,27.59,0,0,0,8.57,7.92,22.91,22.91,0,0,0,11.88,3,27.1,27.1,0,0,0,12.17-2.66,27.48,27.48,0,0,0,9.14-7.2,32.94,32.94,0,0,0,5.76-10.44A37.51,37.51,0,0,0,1580.49,431.4Z"/><path d="M1822.3,390.79a68.41,68.41,0,0,1-4.18,24.77,60.52,60.52,0,0,1-11.45,18.87,68.88,68.88,0,0,1-17.07,13.68,107.25,107.25,0,0,1-20.95,9.15,140.45,140.45,0,0,1-23.11,5.18,186.11,186.11,0,0,1-23.48,1.8v67.11H1655q0-33,.14-65.67t.43-66q.29-17.57.15-35.14t.72-35.43a268,268,0,0,1,36.87-8.21,259.14,259.14,0,0,1,38-2.73,138.32,138.32,0,0,1,22.18,1.8,106.82,106.82,0,0,1,21.24,5.69,94.35,94.35,0,0,1,18.86,9.72,65,65,0,0,1,15,13.89,64.26,64.26,0,0,1,10,18.37A68.41,68.41,0,0,1,1822.3,390.79Zm-64,4.9q0-9.36-5.69-14.62t-14.76-5.26a40.29,40.29,0,0,0-6.26.51c-2.16.34-4.2.74-6.12,1.22l-1.73,42.06a27.72,27.72,0,0,0,3.89.28h3.89a29.22,29.22,0,0,0,10-1.73,26.59,26.59,0,0,0,8.57-5,25,25,0,0,0,6-7.64A21.39,21.39,0,0,0,1758.35,395.69Z"/><path d="M1982.44,323.39,1981,384.46l-42.91,1.72-10.95,136.53-60.77,3.17.28-136.53-42.91,2.31,1.72-68Z"/><path d="M2152.1,517l-71.44,9.22L2072,493.62h-32.83L2032,526.17l-73.44-7.2,57.31-191.83,80.08-4Zm-85.26-67.4-11-50.12-10.66,50.12Zm66-171.38q-17.15,9.36-33.42,18.94t-32.54,20.81l-18.44-20.16q2.88-3.47,6.92-7.71t8.56-8.71q4.54-4.47,9.44-9t9.5-8.72q10.95-9.93,22.9-20Z"/><path d="M1002.26,627.19q0,10.66-1,23.47t-3.31,26.5q-2.31,13.7-6,27.73a198.3,198.3,0,0,1-9.14,27,159.45,159.45,0,0,1-12.75,24.27,95.92,95.92,0,0,1-16.7,19.73,74.14,74.14,0,0,1-21.1,13.25A67.36,67.36,0,0,1,906.34,794q-16.7,0-29-5.4A65.2,65.2,0,0,1,856.23,774a76.94,76.94,0,0,1-14.4-21.32A132.91,132.91,0,0,1,833,726.92a196.66,196.66,0,0,1-4.39-27.79q-1.23-14.19-1.23-27.3a401.18,401.18,0,0,1,2-40.25q2-20.08,5.76-40.11l67.4,2.6q-3.89,22.6-6.7,45.43a375.79,375.79,0,0,0-2.8,45.87c0,1.64.07,4.06.21,7.28s.41,6.81.79,10.8.94,8.06,1.66,12.24a67.3,67.3,0,0,0,3,11.45,29.31,29.31,0,0,0,4.54,8.49,7.85,7.85,0,0,0,6.26,3.32c2.79,0,5.28-1.32,7.49-4a36.84,36.84,0,0,0,5.83-10.59,106.62,106.62,0,0,0,4.4-15.26q1.86-8.64,3.17-18t2.08-18.72q.79-9.36,1.3-17.42t.65-14.26q.14-6.19.14-9.22,0-11.24-.36-22.39t-1.08-22.26h67.4Q1002.25,606.74,1002.26,627.19Z"/><path d="M1209.65,580.82,1199.28,776.1,1123.81,783l-40.32-104.56L1077.15,785h-64.81l5.19-204.21,72-3.46,49.83,103.69,2.3-97.93Z"/><path d="M1415.3,579.66q-.85,13.55-1.58,26.79t-1.87,26.79l-61.07,3.17v18.14h53l-2.88,44.65-50.4,1.44.28,85.26-72.87,1.44,4.61-207.68Z"/><path d="M1500.42,584.56l-15.84,196.15-60.78,3.17V588.59Z"/><path d="M1679.14,648.5a98.65,98.65,0,0,1-1.94,20.38,61.54,61.54,0,0,1-6.12,16.78,60.3,60.3,0,0,1-10.8,14.11,96.46,96.46,0,0,1-16,12.39l34.28,61.06-64.81,12.68-22.18-61.36-17.86.58L1571.13,785H1509.2q.72-32.84,1.37-65.38t1.51-65.39q.29-16.56.58-32.83t1.15-32.84a185.59,185.59,0,0,1,39.53-10q9.87-1.37,20-1.87t20.81-.5a111.55,111.55,0,0,1,31.76,4.53,82.7,82.7,0,0,1,27.15,13.61A68.23,68.23,0,0,1,1672,617Q1679.15,630.51,1679.14,648.5Zm-64.52,4.61A35.54,35.54,0,0,0,1613,642a24.7,24.7,0,0,0-4.9-8.71,22.43,22.43,0,0,0-8.07-5.76,28.27,28.27,0,0,0-11.3-2.09,43.14,43.14,0,0,0-5.62.36,39,39,0,0,0-5.33,1.08l-2.3,53.58h3.46a52.29,52.29,0,0,0,12.6-1.59A37.44,37.44,0,0,0,1603,674a27.1,27.1,0,0,0,8.35-8.5A22.9,22.9,0,0,0,1614.62,653.11Z"/><path d="M1861.32,627.19q0,10.66-1,23.47t-3.32,26.5q-2.3,13.7-6,27.73a198.33,198.33,0,0,1-9.15,27,160.31,160.31,0,0,1-12.74,24.27,95.65,95.65,0,0,1-16.71,19.73,74,74,0,0,1-21.1,13.25,67.35,67.35,0,0,1-25.92,4.82q-16.71,0-29-5.4a65.3,65.3,0,0,1-21.1-14.54,76.94,76.94,0,0,1-14.4-21.32,132.91,132.91,0,0,1-8.79-25.78,198.11,198.11,0,0,1-4.39-27.79q-1.23-14.19-1.22-27.3,0-20.16,2-40.25t5.76-40.11l67.4,2.6q-3.89,22.6-6.69,45.43a373.81,373.81,0,0,0-2.81,45.87c0,1.64.07,4.06.22,7.28s.4,6.81.79,10.8.93,8.06,1.65,12.24a67.29,67.29,0,0,0,3,11.45,29.06,29.06,0,0,0,4.53,8.49,7.88,7.88,0,0,0,6.27,3.32q4.17,0,7.49-4a37.08,37.08,0,0,0,5.83-10.59,106.68,106.68,0,0,0,4.39-15.26q1.88-8.64,3.17-18t2.09-18.72q.78-9.36,1.29-17.42t.65-14.26q.15-6.19.15-9.22,0-11.24-.36-22.39t-1.08-22.26h67.4Q1861.33,606.74,1861.32,627.19Z"/><path d="M1999.44,705.25l-6,63.94-121.26,9.51q.86-50.26,1.94-100t2.66-100h74.89q-3.31,31.55-6.33,63T1941,705.25q6.77.29,13.39.29h13.39q8.07,0,15.85-.15T1999.44,705.25Z"/><path d="M2187.81,775l-71.43,9.22-8.64-32.55H2074.9l-7.2,32.55-73.45-7.2,57.32-191.83,80.08-4Zm-85.26-67.4-10.94-50.12L2081,707.55Z"/><path d="M2268.61,584.56l-15.85,196.15L2192,783.88V588.59Z"/><path d="M2426,710.72q0,19.74-6.84,34.49a68.71,68.71,0,0,1-18.73,24.56,80.31,80.31,0,0,1-27.79,14.69,115.89,115.89,0,0,1-34.21,4.89,71.7,71.7,0,0,1-15.48-1.87q-8.41-1.87-17.06-4.68t-16.64-6q-8-3.24-14.18-6.12l6.33-59.33a101.59,101.59,0,0,0,27.15,11.16,118.09,118.09,0,0,0,29.31,3.81q2.73,0,6.62-.21a31.39,31.39,0,0,0,7.42-1.3,16,16,0,0,0,6-3.24,7.82,7.82,0,0,0,2.44-6.19,6.8,6.8,0,0,0-1.72-4.68,13.07,13.07,0,0,0-4.47-3.17,27.78,27.78,0,0,0-6.19-1.87,66.23,66.23,0,0,0-6.77-.94q-3.32-.28-6.19-.29h-4.61a57,57,0,0,1-22.54-4.32,51.33,51.33,0,0,1-17.43-12,54.9,54.9,0,0,1-11.3-18.29,64,64,0,0,1-4-23q0-17,6.84-30.46a70.85,70.85,0,0,1,18.29-22.9,82.93,82.93,0,0,1,26.28-14.48,94.7,94.7,0,0,1,30.68-5q7.05,0,14.54.51a139.1,139.1,0,0,1,14.91,1.8,141,141,0,0,1,14.47,3.31,86.34,86.34,0,0,1,13.4,5L2409,643a175.9,175.9,0,0,0-20.52-5.54,102.61,102.61,0,0,0-20.95-2.24c-1.25,0-2.86,0-4.83.08s-4,.19-6.19.43a63.82,63.82,0,0,0-6.55,1.08,27.88,27.88,0,0,0-5.91,1.94,11.49,11.49,0,0,0-4.18,3.24,7.44,7.44,0,0,0,.94,9.87,15.71,15.71,0,0,0,5.76,3,40,40,0,0,0,7.78,1.51q4.24.44,8.42.51t7.78,0a40.73,40.73,0,0,1,5.9.22,58.76,58.76,0,0,1,20.74,4.89,48.06,48.06,0,0,1,15.63,11.09,46.9,46.9,0,0,1,9.79,16.49A62.89,62.89,0,0,1,2426,710.72Z"/></svg>